<mxfile host="app.diagrams.net" agent="Mozilla/5.0 (Windows NT 10.0; Win64; x64) AppleWebKit/537.36 (KHTML, like Gecko) Chrome/135.0.0.0 Safari/537.36" version="26.2.12">
  <diagram name="페이지-1" id="Uyw2kgYe03FrZPK4gf_r">
    <mxGraphModel dx="2780" dy="1518" grid="0" gridSize="10" guides="1" tooltips="1" connect="1" arrows="1" fold="1" page="1" pageScale="1" pageWidth="827" pageHeight="1169" math="0" shadow="0">
      <root>
        <mxCell id="0" />
        <mxCell id="1" parent="0" />
        <mxCell id="5Q26TO5uncK6xPd2ovMB-127" value="ParentLoop" style="whiteSpace=wrap;strokeWidth=2;fontSize=30;" parent="1" vertex="1">
          <mxGeometry x="20" y="1075" width="1570" height="2880" as="geometry" />
        </mxCell>
        <mxCell id="5Q26TO5uncK6xPd2ovMB-128" value="ChildLoop" style="whiteSpace=wrap;strokeWidth=2;fontSize=30;" parent="1" vertex="1">
          <mxGeometry x="40" y="2187" width="959" height="1738" as="geometry" />
        </mxCell>
        <mxCell id="5Q26TO5uncK6xPd2ovMB-130" value="Save program start time" style="whiteSpace=wrap;strokeWidth=2;fontSize=30;" parent="1" vertex="1">
          <mxGeometry x="952.5" y="637" width="240" height="77" as="geometry" />
        </mxCell>
        <mxCell id="5Q26TO5uncK6xPd2ovMB-131" value="Get home directory path" style="whiteSpace=wrap;strokeWidth=2;fontSize=30;" parent="1" vertex="1">
          <mxGeometry x="945.5" y="742" width="254" height="79" as="geometry" />
        </mxCell>
        <mxCell id="5Q26TO5uncK6xPd2ovMB-132" value="Set umask to 0" style="whiteSpace=wrap;strokeWidth=2;fontSize=30;" parent="1" vertex="1">
          <mxGeometry x="981.5" y="849" width="180" height="71" as="geometry" />
        </mxCell>
        <mxCell id="5Q26TO5uncK6xPd2ovMB-133" value="Create log directory" style="whiteSpace=wrap;strokeWidth=2;fontSize=30;" parent="1" vertex="1">
          <mxGeometry x="967" y="951" width="209" height="81" as="geometry" />
        </mxCell>
        <mxCell id="5Q26TO5uncK6xPd2ovMB-134" value="Open logfile" style="whiteSpace=wrap;strokeWidth=2;fontSize=30;" parent="1" vertex="1">
          <mxGeometry x="984.5" y="1118" width="182" height="71" as="geometry" />
        </mxCell>
        <mxCell id="dMedY_8rJFaH_x1FWplr-3" value="" style="edgeStyle=orthogonalEdgeStyle;rounded=0;orthogonalLoop=1;jettySize=auto;html=1;" edge="1" parent="1" source="5Q26TO5uncK6xPd2ovMB-135" target="5Q26TO5uncK6xPd2ovMB-134">
          <mxGeometry relative="1" as="geometry" />
        </mxCell>
        <mxCell id="5Q26TO5uncK6xPd2ovMB-135" value="Get parent PID" style="whiteSpace=wrap;strokeWidth=2;fontSize=30;" parent="1" vertex="1">
          <mxGeometry x="981" y="1229" width="189" height="71" as="geometry" />
        </mxCell>
        <mxCell id="5Q26TO5uncK6xPd2ovMB-136" value="Input command" style="whiteSpace=wrap;strokeWidth=2;fontSize=30;" parent="1" vertex="1">
          <mxGeometry x="857" y="1353" width="189" height="72" as="geometry" />
        </mxCell>
        <mxCell id="5Q26TO5uncK6xPd2ovMB-137" value="Is command connect" style="rhombus;strokeWidth=2;whiteSpace=wrap;fontSize=30;" parent="1" vertex="1">
          <mxGeometry x="851" y="1463" width="201" height="201" as="geometry" />
        </mxCell>
        <mxCell id="5Q26TO5uncK6xPd2ovMB-138" value="Fork child process" style="whiteSpace=wrap;strokeWidth=2;fontSize=30;" parent="1" vertex="1">
          <mxGeometry x="804.5" y="1748" width="252" height="102" as="geometry" />
        </mxCell>
        <mxCell id="5Q26TO5uncK6xPd2ovMB-139" value="Is child process" style="rhombus;strokeWidth=2;whiteSpace=wrap;fontSize=30;" parent="1" vertex="1">
          <mxGeometry x="817.5" y="1912" width="226" height="213" as="geometry" />
        </mxCell>
        <mxCell id="5Q26TO5uncK6xPd2ovMB-209" value="" style="edgeStyle=orthogonalEdgeStyle;rounded=0;orthogonalLoop=1;jettySize=auto;html=1;" parent="1" source="5Q26TO5uncK6xPd2ovMB-140" target="5Q26TO5uncK6xPd2ovMB-141" edge="1">
          <mxGeometry relative="1" as="geometry" />
        </mxCell>
        <mxCell id="5Q26TO5uncK6xPd2ovMB-140" value="Save child start time" style="whiteSpace=wrap;strokeWidth=2;fontSize=30;" parent="1" vertex="1">
          <mxGeometry x="560.5" y="2224" width="267" height="90" as="geometry" />
        </mxCell>
        <mxCell id="5Q26TO5uncK6xPd2ovMB-141" value="Get child PID" style="whiteSpace=wrap;strokeWidth=2;fontSize=30;" parent="1" vertex="1">
          <mxGeometry x="585" y="2352" width="218" height="83" as="geometry" />
        </mxCell>
        <mxCell id="5Q26TO5uncK6xPd2ovMB-142" value="Input URL" style="whiteSpace=wrap;strokeWidth=2;fontSize=30;" parent="1" vertex="1">
          <mxGeometry x="266" y="2425" width="151" height="73" as="geometry" />
        </mxCell>
        <mxCell id="5Q26TO5uncK6xPd2ovMB-143" value="Get current time" style="whiteSpace=wrap;strokeWidth=2;fontSize=30;" parent="1" vertex="1">
          <mxGeometry x="245" y="2529" width="193" height="85" as="geometry" />
        </mxCell>
        <mxCell id="5Q26TO5uncK6xPd2ovMB-144" value="Is URL bye" style="rhombus;strokeWidth=2;whiteSpace=wrap;fontSize=30;" parent="1" vertex="1">
          <mxGeometry x="261.5" y="2639" width="160" height="165" as="geometry" />
        </mxCell>
        <mxCell id="5Q26TO5uncK6xPd2ovMB-145" value="Save child end time" style="whiteSpace=wrap;strokeWidth=2;fontSize=30;" parent="1" vertex="1">
          <mxGeometry x="91.5" y="2846.5" width="232" height="76" as="geometry" />
        </mxCell>
        <mxCell id="5Q26TO5uncK6xPd2ovMB-146" value="Calculate child runtime" style="whiteSpace=wrap;strokeWidth=2;fontSize=30;" parent="1" vertex="1">
          <mxGeometry x="84.5" y="2963" width="246" height="87" as="geometry" />
        </mxCell>
        <mxCell id="5Q26TO5uncK6xPd2ovMB-147" value="Write child termination log" style="whiteSpace=wrap;strokeWidth=2;fontSize=30;" parent="1" vertex="1">
          <mxGeometry x="68.5" y="3090" width="278" height="99" as="geometry" />
        </mxCell>
        <mxCell id="5Q26TO5uncK6xPd2ovMB-148" value="Exit child" style="whiteSpace=wrap;strokeWidth=2;fontSize=30;" parent="1" vertex="1">
          <mxGeometry x="128.5" y="3229.5" width="158" height="83" as="geometry" />
        </mxCell>
        <mxCell id="5Q26TO5uncK6xPd2ovMB-149" value="Hash URL with SHA1" style="whiteSpace=wrap;strokeWidth=2;fontSize=30;" parent="1" vertex="1">
          <mxGeometry x="395.5" y="2828" width="227" height="80" as="geometry" />
        </mxCell>
        <mxCell id="5Q26TO5uncK6xPd2ovMB-150" value="Parse 3 characters for directory name" style="whiteSpace=wrap;strokeWidth=2;fontSize=30;" parent="1" vertex="1">
          <mxGeometry x="370.5" y="2936" width="277" height="75" as="geometry" />
        </mxCell>
        <mxCell id="5Q26TO5uncK6xPd2ovMB-151" value="Parse 37 characters for file name" style="whiteSpace=wrap;strokeWidth=2;fontSize=30;" parent="1" vertex="1">
          <mxGeometry x="363.5" y="3041" width="291" height="90" as="geometry" />
        </mxCell>
        <mxCell id="5Q26TO5uncK6xPd2ovMB-152" value="Create cache directory and subdirectory if not exist" style="whiteSpace=wrap;strokeWidth=2;fontSize=30;" parent="1" vertex="1">
          <mxGeometry x="368.5" y="3163" width="281" height="73" as="geometry" />
        </mxCell>
        <mxCell id="5Q26TO5uncK6xPd2ovMB-153" value="Check if file exists in subdirectory" style="whiteSpace=wrap;strokeWidth=2;fontSize=30;" parent="1" vertex="1">
          <mxGeometry x="370.5" y="3294" width="289" height="95" as="geometry" />
        </mxCell>
        <mxCell id="5Q26TO5uncK6xPd2ovMB-154" value="Does file exist" style="rhombus;strokeWidth=2;whiteSpace=wrap;fontSize=30;" parent="1" vertex="1">
          <mxGeometry x="412.5" y="3414" width="205" height="167" as="geometry" />
        </mxCell>
        <mxCell id="5Q26TO5uncK6xPd2ovMB-210" style="edgeStyle=orthogonalEdgeStyle;rounded=0;orthogonalLoop=1;jettySize=auto;html=1;exitX=0.5;exitY=1;exitDx=0;exitDy=0;entryX=0.5;entryY=0;entryDx=0;entryDy=0;" parent="1" source="5Q26TO5uncK6xPd2ovMB-155" target="5Q26TO5uncK6xPd2ovMB-156" edge="1">
          <mxGeometry relative="1" as="geometry" />
        </mxCell>
        <mxCell id="5Q26TO5uncK6xPd2ovMB-155" value="Create file and increase miss count" style="whiteSpace=wrap;strokeWidth=2;fontSize=30;" parent="1" vertex="1">
          <mxGeometry x="382" y="3632" width="305" height="116" as="geometry" />
        </mxCell>
        <mxCell id="5Q26TO5uncK6xPd2ovMB-156" value="Write MISS log" style="whiteSpace=wrap;strokeWidth=2;fontSize=30;" parent="1" vertex="1">
          <mxGeometry x="490" y="3800" width="221" height="80" as="geometry" />
        </mxCell>
        <mxCell id="5Q26TO5uncK6xPd2ovMB-157" value="Increase hit count" style="whiteSpace=wrap;strokeWidth=2;fontSize=30;" parent="1" vertex="1">
          <mxGeometry x="709" y="3575" width="215" height="75" as="geometry" />
        </mxCell>
        <mxCell id="5Q26TO5uncK6xPd2ovMB-158" value="Write HIT log" style="whiteSpace=wrap;strokeWidth=2;fontSize=30;" parent="1" vertex="1">
          <mxGeometry x="778" y="3679" width="206" height="106" as="geometry" />
        </mxCell>
        <mxCell id="5Q26TO5uncK6xPd2ovMB-159" value="Parent waits for child" style="whiteSpace=wrap;strokeWidth=2;fontSize=30;" parent="1" vertex="1">
          <mxGeometry x="1034" y="2212" width="239" height="84" as="geometry" />
        </mxCell>
        <mxCell id="5Q26TO5uncK6xPd2ovMB-160" value="Is command quit" style="rhombus;strokeWidth=2;whiteSpace=wrap;fontSize=30;" parent="1" vertex="1">
          <mxGeometry x="1290" y="1647" width="269" height="230" as="geometry" />
        </mxCell>
        <mxCell id="5Q26TO5uncK6xPd2ovMB-161" value="Save end time" style="whiteSpace=wrap;strokeWidth=2;fontSize=30;" parent="1" vertex="1">
          <mxGeometry x="1344" y="2006" width="162" height="54" as="geometry" />
        </mxCell>
        <mxCell id="5Q26TO5uncK6xPd2ovMB-162" value="Calculate program runtime" style="whiteSpace=wrap;strokeWidth=2;fontSize=30;" parent="1" vertex="1">
          <mxGeometry x="1294" y="2145" width="261" height="101" as="geometry" />
        </mxCell>
        <mxCell id="5Q26TO5uncK6xPd2ovMB-163" value="Write server termination log" style="whiteSpace=wrap;strokeWidth=2;fontSize=30;" parent="1" vertex="1">
          <mxGeometry x="1291.5" y="2283" width="267" height="101" as="geometry" />
        </mxCell>
        <mxCell id="5Q26TO5uncK6xPd2ovMB-208" style="edgeStyle=orthogonalEdgeStyle;rounded=0;orthogonalLoop=1;jettySize=auto;html=1;exitX=0.5;exitY=1;exitDx=0;exitDy=0;entryX=0.5;entryY=0;entryDx=0;entryDy=0;" parent="1" source="5Q26TO5uncK6xPd2ovMB-164" target="5Q26TO5uncK6xPd2ovMB-207" edge="1">
          <mxGeometry relative="1" as="geometry" />
        </mxCell>
        <mxCell id="5Q26TO5uncK6xPd2ovMB-164" value="Close logfile and exit" style="whiteSpace=wrap;strokeWidth=2;fontSize=30;" parent="1" vertex="1">
          <mxGeometry x="1306.5" y="2427" width="236" height="97" as="geometry" />
        </mxCell>
        <mxCell id="5Q26TO5uncK6xPd2ovMB-166" value="" style="curved=1;startArrow=none;endArrow=block;exitX=0.5;exitY=1;entryX=0.5;entryY=0;rounded=0;fontSize=30;" parent="1" target="5Q26TO5uncK6xPd2ovMB-130" edge="1">
          <mxGeometry relative="1" as="geometry">
            <Array as="points" />
            <mxPoint x="1072.5" y="609" as="sourcePoint" />
          </mxGeometry>
        </mxCell>
        <mxCell id="5Q26TO5uncK6xPd2ovMB-167" value="" style="curved=1;startArrow=none;endArrow=block;exitX=0.5;exitY=1;entryX=0.5;entryY=0;rounded=0;fontSize=30;" parent="1" source="5Q26TO5uncK6xPd2ovMB-130" target="5Q26TO5uncK6xPd2ovMB-131" edge="1">
          <mxGeometry relative="1" as="geometry">
            <Array as="points" />
          </mxGeometry>
        </mxCell>
        <mxCell id="5Q26TO5uncK6xPd2ovMB-168" value="" style="curved=1;startArrow=none;endArrow=block;exitX=0.5;exitY=1;entryX=0.5;entryY=0;rounded=0;fontSize=30;" parent="1" source="5Q26TO5uncK6xPd2ovMB-131" target="5Q26TO5uncK6xPd2ovMB-132" edge="1">
          <mxGeometry relative="1" as="geometry">
            <Array as="points" />
          </mxGeometry>
        </mxCell>
        <mxCell id="5Q26TO5uncK6xPd2ovMB-169" value="" style="curved=1;startArrow=none;endArrow=block;exitX=0.5;exitY=1;entryX=0.5;entryY=0;rounded=0;fontSize=30;" parent="1" source="5Q26TO5uncK6xPd2ovMB-132" target="5Q26TO5uncK6xPd2ovMB-133" edge="1">
          <mxGeometry relative="1" as="geometry">
            <Array as="points" />
          </mxGeometry>
        </mxCell>
        <mxCell id="5Q26TO5uncK6xPd2ovMB-170" value="" style="curved=1;startArrow=none;endArrow=block;exitX=0.5;exitY=1;entryX=0.5;entryY=0;rounded=0;fontSize=30;" parent="1" source="5Q26TO5uncK6xPd2ovMB-133" target="5Q26TO5uncK6xPd2ovMB-134" edge="1">
          <mxGeometry relative="1" as="geometry">
            <Array as="points" />
          </mxGeometry>
        </mxCell>
        <mxCell id="5Q26TO5uncK6xPd2ovMB-171" value="" style="curved=1;startArrow=none;endArrow=block;exitX=0.5;exitY=1;entryX=0.5;entryY=0;rounded=0;fontSize=30;" parent="1" source="5Q26TO5uncK6xPd2ovMB-134" target="5Q26TO5uncK6xPd2ovMB-135" edge="1">
          <mxGeometry relative="1" as="geometry">
            <Array as="points" />
          </mxGeometry>
        </mxCell>
        <mxCell id="5Q26TO5uncK6xPd2ovMB-172" value="" style="curved=1;startArrow=none;endArrow=block;exitX=0.13;exitY=1;entryX=0.5;entryY=0;rounded=0;fontSize=30;" parent="1" source="5Q26TO5uncK6xPd2ovMB-135" target="5Q26TO5uncK6xPd2ovMB-136" edge="1">
          <mxGeometry relative="1" as="geometry">
            <Array as="points">
              <mxPoint x="953" y="1283" />
            </Array>
          </mxGeometry>
        </mxCell>
        <mxCell id="5Q26TO5uncK6xPd2ovMB-173" value="" style="curved=1;startArrow=none;endArrow=block;exitX=0.5;exitY=1;entryX=0.5;entryY=0;rounded=0;fontSize=30;" parent="1" source="5Q26TO5uncK6xPd2ovMB-136" target="5Q26TO5uncK6xPd2ovMB-137" edge="1">
          <mxGeometry relative="1" as="geometry">
            <Array as="points" />
          </mxGeometry>
        </mxCell>
        <mxCell id="5Q26TO5uncK6xPd2ovMB-174" value="Yes" style="curved=1;startArrow=none;endArrow=block;exitX=0.41;exitY=1;entryX=0.5;entryY=0.01;rounded=0;fontSize=30;" parent="1" source="5Q26TO5uncK6xPd2ovMB-137" target="5Q26TO5uncK6xPd2ovMB-138" edge="1">
          <mxGeometry relative="1" as="geometry">
            <Array as="points">
              <mxPoint x="930" y="1671" />
            </Array>
          </mxGeometry>
        </mxCell>
        <mxCell id="5Q26TO5uncK6xPd2ovMB-175" value="" style="curved=1;startArrow=none;endArrow=block;exitX=0.5;exitY=1.01;entryX=0.5;entryY=0;rounded=0;fontSize=30;" parent="1" source="5Q26TO5uncK6xPd2ovMB-138" target="5Q26TO5uncK6xPd2ovMB-139" edge="1">
          <mxGeometry relative="1" as="geometry">
            <Array as="points" />
          </mxGeometry>
        </mxCell>
        <mxCell id="5Q26TO5uncK6xPd2ovMB-176" value="Yes" style="curved=1;startArrow=none;endArrow=block;exitX=0;exitY=0.73;entryX=0.5;entryY=0;rounded=0;fontSize=30;" parent="1" source="5Q26TO5uncK6xPd2ovMB-139" target="5Q26TO5uncK6xPd2ovMB-140" edge="1">
          <mxGeometry x="-0.3604" y="-10" relative="1" as="geometry">
            <Array as="points">
              <mxPoint x="674" y="2151" />
            </Array>
            <mxPoint x="1" as="offset" />
          </mxGeometry>
        </mxCell>
        <mxCell id="5Q26TO5uncK6xPd2ovMB-177" value="" style="curved=1;startArrow=none;endArrow=block;exitX=0.5;exitY=1;entryX=0.5;entryY=0;rounded=0;fontSize=30;" parent="1" source="5Q26TO5uncK6xPd2ovMB-140" target="5Q26TO5uncK6xPd2ovMB-141" edge="1">
          <mxGeometry relative="1" as="geometry">
            <Array as="points" />
          </mxGeometry>
        </mxCell>
        <mxCell id="5Q26TO5uncK6xPd2ovMB-178" value="" style="curved=1;startArrow=none;endArrow=block;exitX=0;exitY=0.72;entryX=0.5;entryY=0;rounded=0;fontSize=30;" parent="1" source="5Q26TO5uncK6xPd2ovMB-141" target="5Q26TO5uncK6xPd2ovMB-142" edge="1">
          <mxGeometry relative="1" as="geometry">
            <Array as="points">
              <mxPoint x="342" y="2395" />
            </Array>
          </mxGeometry>
        </mxCell>
        <mxCell id="5Q26TO5uncK6xPd2ovMB-179" value="" style="curved=1;startArrow=none;endArrow=block;exitX=0.5;exitY=1;entryX=0.5;entryY=0;rounded=0;fontSize=30;" parent="1" source="5Q26TO5uncK6xPd2ovMB-142" target="5Q26TO5uncK6xPd2ovMB-143" edge="1">
          <mxGeometry relative="1" as="geometry">
            <Array as="points" />
          </mxGeometry>
        </mxCell>
        <mxCell id="5Q26TO5uncK6xPd2ovMB-180" value="" style="curved=1;startArrow=none;endArrow=block;exitX=0.5;exitY=1;entryX=0.5;entryY=0;rounded=0;fontSize=30;" parent="1" source="5Q26TO5uncK6xPd2ovMB-143" target="5Q26TO5uncK6xPd2ovMB-144" edge="1">
          <mxGeometry relative="1" as="geometry">
            <Array as="points" />
          </mxGeometry>
        </mxCell>
        <mxCell id="5Q26TO5uncK6xPd2ovMB-181" value="Yes" style="curved=1;startArrow=none;endArrow=block;exitX=0;exitY=0.86;entryX=0.5;entryY=-0.01;rounded=0;fontSize=30;" parent="1" source="5Q26TO5uncK6xPd2ovMB-144" target="5Q26TO5uncK6xPd2ovMB-145" edge="1">
          <mxGeometry relative="1" as="geometry">
            <Array as="points">
              <mxPoint x="202" y="2792" />
            </Array>
          </mxGeometry>
        </mxCell>
        <mxCell id="5Q26TO5uncK6xPd2ovMB-182" value="" style="curved=1;startArrow=none;endArrow=block;exitX=0.5;exitY=0.99;entryX=0.5;entryY=-0.01;rounded=0;fontSize=30;" parent="1" source="5Q26TO5uncK6xPd2ovMB-145" target="5Q26TO5uncK6xPd2ovMB-146" edge="1">
          <mxGeometry relative="1" as="geometry">
            <Array as="points" />
          </mxGeometry>
        </mxCell>
        <mxCell id="5Q26TO5uncK6xPd2ovMB-183" value="" style="curved=1;startArrow=none;endArrow=block;exitX=0.5;exitY=0.99;entryX=0.5;entryY=-0.01;rounded=0;fontSize=30;" parent="1" source="5Q26TO5uncK6xPd2ovMB-146" target="5Q26TO5uncK6xPd2ovMB-147" edge="1">
          <mxGeometry relative="1" as="geometry">
            <Array as="points" />
          </mxGeometry>
        </mxCell>
        <mxCell id="5Q26TO5uncK6xPd2ovMB-184" value="" style="curved=1;startArrow=none;endArrow=block;exitX=0.5;exitY=0.99;entryX=0.5;entryY=-0.01;rounded=0;fontSize=30;" parent="1" source="5Q26TO5uncK6xPd2ovMB-147" target="5Q26TO5uncK6xPd2ovMB-148" edge="1">
          <mxGeometry relative="1" as="geometry">
            <Array as="points" />
          </mxGeometry>
        </mxCell>
        <mxCell id="5Q26TO5uncK6xPd2ovMB-185" value="No" style="curved=1;startArrow=none;endArrow=block;exitX=1;exitY=0.8;entryX=0.5;entryY=-0.01;rounded=0;fontSize=30;" parent="1" source="5Q26TO5uncK6xPd2ovMB-144" target="5Q26TO5uncK6xPd2ovMB-149" edge="1">
          <mxGeometry relative="1" as="geometry">
            <Array as="points">
              <mxPoint x="509" y="2792" />
            </Array>
          </mxGeometry>
        </mxCell>
        <mxCell id="5Q26TO5uncK6xPd2ovMB-186" value="" style="curved=1;startArrow=none;endArrow=block;exitX=0.5;exitY=0.99;entryX=0.5;entryY=-0.01;rounded=0;fontSize=30;" parent="1" source="5Q26TO5uncK6xPd2ovMB-149" target="5Q26TO5uncK6xPd2ovMB-150" edge="1">
          <mxGeometry relative="1" as="geometry">
            <Array as="points" />
          </mxGeometry>
        </mxCell>
        <mxCell id="5Q26TO5uncK6xPd2ovMB-187" value="" style="curved=1;startArrow=none;endArrow=block;exitX=0.5;exitY=0.99;entryX=0.5;entryY=-0.01;rounded=0;fontSize=30;" parent="1" source="5Q26TO5uncK6xPd2ovMB-150" target="5Q26TO5uncK6xPd2ovMB-151" edge="1">
          <mxGeometry relative="1" as="geometry">
            <Array as="points" />
          </mxGeometry>
        </mxCell>
        <mxCell id="5Q26TO5uncK6xPd2ovMB-188" value="" style="curved=1;startArrow=none;endArrow=block;exitX=0.5;exitY=0.99;entryX=0.5;entryY=-0.01;rounded=0;fontSize=30;" parent="1" source="5Q26TO5uncK6xPd2ovMB-151" target="5Q26TO5uncK6xPd2ovMB-152" edge="1">
          <mxGeometry relative="1" as="geometry">
            <Array as="points" />
          </mxGeometry>
        </mxCell>
        <mxCell id="5Q26TO5uncK6xPd2ovMB-189" value="" style="curved=1;startArrow=none;endArrow=block;exitX=0.5;exitY=0.99;entryX=0.5;entryY=-0.01;rounded=0;fontSize=30;" parent="1" source="5Q26TO5uncK6xPd2ovMB-152" target="5Q26TO5uncK6xPd2ovMB-153" edge="1">
          <mxGeometry relative="1" as="geometry">
            <Array as="points" />
          </mxGeometry>
        </mxCell>
        <mxCell id="5Q26TO5uncK6xPd2ovMB-190" value="" style="curved=1;startArrow=none;endArrow=block;exitX=0.5;exitY=0.99;entryX=0.5;entryY=0;rounded=0;fontSize=30;" parent="1" source="5Q26TO5uncK6xPd2ovMB-153" target="5Q26TO5uncK6xPd2ovMB-154" edge="1">
          <mxGeometry relative="1" as="geometry">
            <Array as="points" />
          </mxGeometry>
        </mxCell>
        <mxCell id="5Q26TO5uncK6xPd2ovMB-191" value="No" style="curved=1;startArrow=none;endArrow=block;exitX=0.5;exitY=1;entryX=0.5;entryY=0.01;rounded=0;fontSize=30;" parent="1" source="5Q26TO5uncK6xPd2ovMB-154" target="5Q26TO5uncK6xPd2ovMB-155" edge="1">
          <mxGeometry relative="1" as="geometry">
            <Array as="points" />
          </mxGeometry>
        </mxCell>
        <mxCell id="5Q26TO5uncK6xPd2ovMB-193" value="" style="curved=1;startArrow=none;endArrow=block;exitX=0.81;exitY=0.01;entryX=0.5;entryY=1;rounded=0;fontSize=30;" parent="1" source="5Q26TO5uncK6xPd2ovMB-156" target="5Q26TO5uncK6xPd2ovMB-141" edge="1">
          <mxGeometry relative="1" as="geometry">
            <Array as="points">
              <mxPoint x="674" y="3654" />
            </Array>
          </mxGeometry>
        </mxCell>
        <mxCell id="5Q26TO5uncK6xPd2ovMB-194" value="Yes" style="curved=1;startArrow=none;endArrow=block;exitX=1;exitY=0.69;entryX=0.5;entryY=0.01;rounded=0;fontSize=30;" parent="1" source="5Q26TO5uncK6xPd2ovMB-154" target="5Q26TO5uncK6xPd2ovMB-157" edge="1">
          <mxGeometry relative="1" as="geometry">
            <Array as="points">
              <mxPoint x="803" y="3539" />
            </Array>
          </mxGeometry>
        </mxCell>
        <mxCell id="5Q26TO5uncK6xPd2ovMB-195" value="" style="curved=1;startArrow=none;endArrow=block;exitX=0.5;exitY=1.01;entryX=0.32;entryY=0.01;rounded=0;fontSize=30;" parent="1" source="5Q26TO5uncK6xPd2ovMB-157" target="5Q26TO5uncK6xPd2ovMB-158" edge="1">
          <mxGeometry relative="1" as="geometry">
            <Array as="points">
              <mxPoint x="803" y="3654" />
            </Array>
          </mxGeometry>
        </mxCell>
        <mxCell id="5Q26TO5uncK6xPd2ovMB-196" value="" style="curved=1;startArrow=none;endArrow=block;exitX=0.76;exitY=0.01;entryX=1;entryY=0.79;rounded=0;fontSize=30;" parent="1" source="5Q26TO5uncK6xPd2ovMB-158" target="5Q26TO5uncK6xPd2ovMB-141" edge="1">
          <mxGeometry relative="1" as="geometry">
            <Array as="points">
              <mxPoint x="933" y="3654" />
              <mxPoint x="933" y="2395" />
            </Array>
          </mxGeometry>
        </mxCell>
        <mxCell id="5Q26TO5uncK6xPd2ovMB-197" value="No" style="curved=1;startArrow=none;endArrow=block;exitX=1;exitY=0.78;entryX=0.5;entryY=0;rounded=0;fontSize=30;" parent="1" source="5Q26TO5uncK6xPd2ovMB-139" target="5Q26TO5uncK6xPd2ovMB-159" edge="1">
          <mxGeometry relative="1" as="geometry">
            <Array as="points">
              <mxPoint x="1141" y="2151" />
            </Array>
          </mxGeometry>
        </mxCell>
        <mxCell id="5Q26TO5uncK6xPd2ovMB-198" value="No" style="curved=1;startArrow=none;endArrow=block;exitX=1;exitY=0.69;entryX=0.01;entryY=0;rounded=0;fontSize=30;" parent="1" source="5Q26TO5uncK6xPd2ovMB-137" target="5Q26TO5uncK6xPd2ovMB-160" edge="1">
          <mxGeometry relative="1" as="geometry">
            <Array as="points">
              <mxPoint x="1306" y="1671" />
            </Array>
          </mxGeometry>
        </mxCell>
        <mxCell id="5Q26TO5uncK6xPd2ovMB-199" value="Yes" style="curved=1;startArrow=none;endArrow=block;exitX=0.5;exitY=1;entryX=0.5;entryY=0.01;rounded=0;fontSize=30;" parent="1" source="5Q26TO5uncK6xPd2ovMB-160" target="5Q26TO5uncK6xPd2ovMB-161" edge="1">
          <mxGeometry relative="1" as="geometry">
            <Array as="points" />
          </mxGeometry>
        </mxCell>
        <mxCell id="5Q26TO5uncK6xPd2ovMB-200" value="" style="curved=1;startArrow=none;endArrow=block;exitX=0.5;exitY=1.01;entryX=0.5;entryY=0;rounded=0;fontSize=30;" parent="1" source="5Q26TO5uncK6xPd2ovMB-161" target="5Q26TO5uncK6xPd2ovMB-162" edge="1">
          <mxGeometry relative="1" as="geometry">
            <Array as="points" />
          </mxGeometry>
        </mxCell>
        <mxCell id="5Q26TO5uncK6xPd2ovMB-201" value="" style="curved=1;startArrow=none;endArrow=block;exitX=0.5;exitY=1;entryX=0.5;entryY=0;rounded=0;fontSize=30;" parent="1" source="5Q26TO5uncK6xPd2ovMB-162" target="5Q26TO5uncK6xPd2ovMB-163" edge="1">
          <mxGeometry relative="1" as="geometry">
            <Array as="points" />
          </mxGeometry>
        </mxCell>
        <mxCell id="5Q26TO5uncK6xPd2ovMB-202" value="" style="curved=1;startArrow=none;endArrow=block;exitX=0.5;exitY=1;entryX=0.5;entryY=0;rounded=0;fontSize=30;" parent="1" source="5Q26TO5uncK6xPd2ovMB-163" target="5Q26TO5uncK6xPd2ovMB-164" edge="1">
          <mxGeometry relative="1" as="geometry">
            <Array as="points" />
          </mxGeometry>
        </mxCell>
        <mxCell id="5Q26TO5uncK6xPd2ovMB-203" value="No" style="curved=1;startArrow=none;endArrow=block;exitX=0.77;exitY=0;entryX=1;entryY=0.69;rounded=0;fontSize=30;" parent="1" source="5Q26TO5uncK6xPd2ovMB-160" target="5Q26TO5uncK6xPd2ovMB-135" edge="1">
          <mxGeometry relative="1" as="geometry">
            <Array as="points">
              <mxPoint x="1492" y="1671" />
              <mxPoint x="1492" y="1283" />
            </Array>
          </mxGeometry>
        </mxCell>
        <mxCell id="5Q26TO5uncK6xPd2ovMB-206" value="&lt;span style=&quot;font-size: 30px;&quot;&gt;Start&lt;/span&gt;" style="ellipse;whiteSpace=wrap;html=1;aspect=fixed;" parent="1" vertex="1">
          <mxGeometry x="1006.75" y="478" width="131.5" height="131.5" as="geometry" />
        </mxCell>
        <mxCell id="5Q26TO5uncK6xPd2ovMB-207" value="&lt;font style=&quot;font-size: 30px;&quot;&gt;End&lt;/font&gt;" style="ellipse;whiteSpace=wrap;html=1;aspect=fixed;" parent="1" vertex="1">
          <mxGeometry x="1620" y="2645" width="138" height="138" as="geometry" />
        </mxCell>
        <mxCell id="dMedY_8rJFaH_x1FWplr-1" value="" style="rounded=0;whiteSpace=wrap;html=1;" vertex="1" parent="1">
          <mxGeometry x="20" y="1043" width="1570" height="35" as="geometry" />
        </mxCell>
        <mxCell id="dMedY_8rJFaH_x1FWplr-4" value="&lt;font&gt;while(1)&lt;/font&gt;" style="text;html=1;align=center;verticalAlign=middle;resizable=0;points=[];autosize=1;strokeColor=none;fillColor=none;fontSize=35;" vertex="1" parent="1">
          <mxGeometry x="746" y="1033.5" width="141" height="54" as="geometry" />
        </mxCell>
        <mxCell id="dMedY_8rJFaH_x1FWplr-5" value="" style="rounded=0;whiteSpace=wrap;html=1;" vertex="1" parent="1">
          <mxGeometry x="40" y="2152" width="959" height="35" as="geometry" />
        </mxCell>
        <mxCell id="dMedY_8rJFaH_x1FWplr-6" value="&lt;font&gt;while(1)&lt;/font&gt;" style="text;html=1;align=center;verticalAlign=middle;resizable=0;points=[];autosize=1;strokeColor=none;fillColor=none;fontSize=35;" vertex="1" parent="1">
          <mxGeometry x="460" y="2142.5" width="141" height="54" as="geometry" />
        </mxCell>
      </root>
    </mxGraphModel>
  </diagram>
</mxfile>
